<?xml version="1.0" encoding="UTF-8" standalone="no"?>
<svg
   xmlns:dc="http://purl.org/dc/elements/1.1/"
   xmlns:cc="http://creativecommons.org/ns#"
   xmlns:rdf="http://www.w3.org/1999/02/22-rdf-syntax-ns#"
   xmlns:svg="http://www.w3.org/2000/svg"
   xmlns="http://www.w3.org/2000/svg"
   xmlns:sodipodi="http://sodipodi.sourceforge.net/DTD/sodipodi-0.dtd"
   xmlns:inkscape="http://www.inkscape.org/namespaces/inkscape"
   width="28.285715"
   height="18"
   viewBox="0 0 28.285715 18"
   version="1.1"
   id="svg12"
   sodipodi:docname="ic-about-us.svg"
   inkscape:version="0.92.4 (5da689c313, 2019-01-14)">
  <metadata
     id="metadata16">
    <rdf:RDF>
      <cc:Work
         rdf:about="">
        <dc:format>image/svg+xml</dc:format>
        <dc:type
           rdf:resource="http://purl.org/dc/dcmitype/StillImage" />
      </cc:Work>
    </rdf:RDF>
  </metadata>
  <sodipodi:namedview
     pagecolor="#ffffff"
     bordercolor="#666666"
     borderopacity="1"
     objecttolerance="10"
     gridtolerance="10"
     guidetolerance="10"
     inkscape:pageopacity="0"
     inkscape:pageshadow="2"
     inkscape:window-width="1920"
     inkscape:window-height="1057"
     id="namedview14"
     showgrid="false"
     inkscape:zoom="13.111111"
     inkscape:cx="14.5"
     inkscape:cy="9"
     inkscape:window-x="-8"
     inkscape:window-y="-8"
     inkscape:window-maximized="1"
     inkscape:current-layer="svg12" />
  <!-- Generator: sketchtool 41.2 (35397) - http://www.bohemiancoding.com/sketch -->
  <title
     id="title2">C9E72C16-2987-4DEC-A43B-989EA4FF9285</title>
  <desc
     id="desc4">Created with sketchtool.</desc>
  <defs
     id="defs6" />
  <g
     id="Visual-Design"
     style="fill:#000000;fill-opacity:1;fill-rule:evenodd;stroke:none;stroke-width:1">
    <g
       id="Fotomat_mobileLanding"
       transform="translate(-160,-15)"
       style="fill:#000000;fill-opacity:1">
      <g
         id="ic_aboutUs"
         transform="translate(160,15)"
         style="fill:#000000;fill-opacity:1">
        <path
           d="m 19.285714,10.285714 c -0.372857,0 -0.797143,0 -1.247143,0.06429 1.491429,1.08 2.532858,2.507143 2.532858,4.435714 V 18 h 7.714285 v -3.214286 c 0,-2.995714 -6.004285,-4.5 -9,-4.5 z M 9,10.285714 c -2.9957143,0 -9,1.504286 -9,4.5 V 18 h 18 v -3.214286 c 0,-2.995714 -6.004286,-4.5 -9,-4.5 z M 9,7.7142857 c 2.130241,0 3.857143,-1.7269017 3.857143,-3.8571428 C 12.857143,1.7269017 11.130241,0 9,0 6.8697588,0 5.1428571,1.7269017 5.1428571,3.8571429 5.1428571,5.987384 6.8697588,7.7142857 9,7.7142857 Z m 10.285714,0 c 2.130241,0 3.857143,-1.7269017 3.857143,-3.8571428 C 23.142857,1.7269017 21.415955,0 19.285714,0 c -2.130241,0 -3.857143,1.7269017 -3.857143,3.8571429 0,2.1302411 1.726902,3.8571428 3.857143,3.8571428 z"
           id="Shape"
           style="fill:#000000;fill-opacity:1"
           inkscape:connector-curvature="0" />
      </g>
    </g>
  </g>
</svg>
