<?xml version="1.0" encoding="UTF-8" standalone="no"?>
<svg
   xmlns:dc="http://purl.org/dc/elements/1.1/"
   xmlns:cc="http://creativecommons.org/ns#"
   xmlns:rdf="http://www.w3.org/1999/02/22-rdf-syntax-ns#"
   xmlns:svg="http://www.w3.org/2000/svg"
   xmlns="http://www.w3.org/2000/svg"
   xmlns:sodipodi="http://sodipodi.sourceforge.net/DTD/sodipodi-0.dtd"
   xmlns:inkscape="http://www.inkscape.org/namespaces/inkscape"
   width="24"
   height="21.6"
   viewBox="0 0 24 21.6"
   version="1.1"
   id="svg12"
   sodipodi:docname="ic-product-detail.svg"
   inkscape:version="0.92.4 (5da689c313, 2019-01-14)">
  <metadata
     id="metadata16">
    <rdf:RDF>
      <cc:Work
         rdf:about="">
        <dc:format>image/svg+xml</dc:format>
        <dc:type
           rdf:resource="http://purl.org/dc/dcmitype/StillImage" />
      </cc:Work>
    </rdf:RDF>
  </metadata>
  <sodipodi:namedview
     pagecolor="#ffffff"
     bordercolor="#666666"
     borderopacity="1"
     objecttolerance="10"
     gridtolerance="10"
     guidetolerance="10"
     inkscape:pageopacity="0"
     inkscape:pageshadow="2"
     inkscape:window-width="1920"
     inkscape:window-height="1057"
     id="namedview14"
     showgrid="false"
     inkscape:zoom="10.727273"
     inkscape:cx="12"
     inkscape:cy="10.6"
     inkscape:window-x="-8"
     inkscape:window-y="-8"
     inkscape:window-maximized="1"
     inkscape:current-layer="Fotomat_mobileLanding" />
  <!-- Generator: sketchtool 41.2 (35397) - http://www.bohemiancoding.com/sketch -->
  <title
     id="title2">2C7427D9-ECE1-4C4E-8060-6394F9CC28E7</title>
  <desc
     id="desc4">Created with sketchtool.</desc>
  <defs
     id="defs6" />
  <g
     id="Visual-Design"
     style="fill:none;fill-rule:evenodd;stroke:none;stroke-width:1">
    <g
       id="Fotomat_mobileLanding"
       transform="translate(-89,-13)"
       style="fill:#4a4a4a">
      <path
         inkscape:connector-curvature="0"
         id="Shape"
         d="M 91.4,15.4 H 95 L 97.4,13 h 7.2 l 2.4,2.4 h 3.6 c 1.32548,0 2.4,1.074517 2.4,2.4 v 14.4 c 0,1.325483 -1.07452,2.4 -2.4,2.4 H 91.4 C 90.074517,34.6 89,33.525483 89,32.2 V 17.8 c 0,-1.325483 1.074517,-2.4 2.4,-2.4 z M 101,19 c -3.313709,0 -6,2.686291 -6,6 0,3.313709 2.686291,6 6,6 3.31371,0 6,-2.686291 6,-6 0,-3.313709 -2.68629,-6 -6,-6 z m 0,2.4 c 1.98823,0 3.6,1.611775 3.6,3.6 0,1.988225 -1.61177,3.6 -3.6,3.6 -1.988225,0 -3.6,-1.611775 -3.6,-3.6 0,-1.988225 1.611775,-3.6 3.6,-3.6 z"
         style="fill:#000000;fill-opacity:1" />
    </g>
  </g>
</svg>
